<?xml version="1.0" encoding="UTF-8" standalone="no"?>
<!-- Generator: Gravit.io -->
<svg xmlns="http://www.w3.org/2000/svg" xmlns:xlink="http://www.w3.org/1999/xlink" style="isolation:isolate" viewBox="0 0 512 512" width="512pt" height="512pt"><defs><clipPath id="_clipPath_LygpOlZI3NhhojCmNR2DRH9cyPa1yCfC"><rect width="512" height="512"/></clipPath></defs><g clip-path="url(#_clipPath_LygpOlZI3NhhojCmNR2DRH9cyPa1yCfC)"><g style="isolation:isolate"><linearGradient id="_lgradient_0" x1="0" y1="0.5" x2="1" y2="0.5" gradientTransform="matrix(463.65,0,0,410.64,24.175,50.68)" gradientUnits="userSpaceOnUse"><stop offset="0%" stop-opacity="1" style="stop-color:rgb(45,212,191)"/><stop offset="100%" stop-opacity="1" style="stop-color:rgb(59,130,246)"/></linearGradient><path d=" M 240.225 461.32 L 36.955 375.67 L 111.045 261.54 L 24.175 84.28 L 215.615 189.34 L 303.835 173.72 L 343.055 190.77 L 310.415 50.68 L 441.085 227.81 L 487.825 339.99 L 358.275 461.32 L 240.225 461.32 Z  M 246.695 429.32 L 84.615 361.03 L 147.765 263.75 L 97.395 160.96 L 210.095 222.82 L 299.915 206.91 L 388.665 245.5 L 376.795 194.57 L 413.035 243.69 L 449.745 331.81 L 345.625 429.32 L 246.695 429.32 Z  M 194.358 317.397 C 194.358 307.187 202.647 298.897 212.858 298.897 C 223.068 298.897 231.358 307.187 231.358 317.397 C 231.358 327.608 223.068 335.897 212.858 335.897 C 202.647 335.897 194.358 327.608 194.358 317.397 Z  M 365.858 317.397 C 365.858 307.187 374.147 298.897 384.358 298.897 C 394.568 298.897 402.858 307.187 402.858 317.397 C 402.858 327.608 394.568 335.897 384.358 335.897 C 374.147 335.897 365.858 327.608 365.858 317.397 Z  M 301.876 379.97" fill-rule="evenodd" fill="url(#_lgradient_0)"/></g></g></svg>